<svg width="25" height="25" viewBox="0 0 25 25" fill="none" xmlns="http://www.w3.org/2000/svg">
<path d="M0 23.7936C0.695 21.5007 1.3875 19.2079 2.0825 16.9151C2.1375 16.7324 2.195 16.5497 2.245 16.3671C2.325 16.0907 2.475 15.8672 2.705 15.6821C2.92 15.5115 3.11 15.3072 3.3075 15.1173C6.565 12.0145 9.8225 8.91175 13.0775 5.80657C13.1525 5.73447 13.2175 5.65275 13.27 5.59026C13.7125 6.01807 14.1275 6.41943 14.59 6.86647C14.54 6.90011 14.4425 6.94818 14.3675 7.02028C10.9925 10.2577 7.62 13.495 4.2525 16.7396C4.1325 16.8574 4.0325 17.0184 3.985 17.177C3.58 18.4628 3.195 19.7559 2.795 21.0465C2.745 21.2075 2.77 21.3085 2.8975 21.419C3.105 21.5993 3.2875 21.806 3.4975 21.9838C3.57 22.0439 3.7075 22.0896 3.795 22.0679C5.14 21.6978 6.4825 21.3205 7.8225 20.9311C7.9375 20.8975 8.045 20.8038 8.135 20.7148C11.5575 17.4342 14.975 14.1488 18.3925 10.8657C18.4575 10.8032 18.5125 10.7335 18.55 10.6927C19.035 11.1589 19.505 11.6108 20.02 12.1059C19.9975 12.1203 19.9075 12.1563 19.845 12.2164C16.475 15.425 13.1 18.6263 9.7475 21.8516C9.28 22.3035 8.7725 22.5823 8.145 22.7529C5.92 23.3586 3.705 23.9979 1.485 24.6251C1.3375 24.666 1.1875 24.7045 1.04 24.7453H0.84C0.7325 24.6997 0.6225 24.6588 0.515 24.6107C0.215 24.4761 0.1125 24.2021 0 23.9354V23.7936ZM6.7225 19.8111C6.6575 19.4122 6.5875 19.0469 6.5425 18.6816C6.52 18.5085 6.4475 18.4388 6.2725 18.4076C5.845 18.3283 5.4225 18.2249 5.0275 18.1408C8.5725 14.7256 12.1175 11.3079 15.64 7.91194C16.2025 8.45271 16.79 9.0151 17.3575 9.55827C13.8475 12.9422 10.305 16.3575 6.7225 19.8111ZM16.9325 2.25195C17.2525 1.95152 17.5725 1.63187 17.915 1.33385C18.8975 0.48305 20.1775 0.502277 21.135 1.40115C22.1925 2.39134 23.235 3.39356 24.265 4.4102C25.24 5.36915 25.225 6.65256 24.2525 7.60911C23.96 7.89752 23.6575 8.17872 23.3775 8.44309C21.2375 6.38819 19.1 4.33569 16.9325 2.25195ZM14.325 4.52075C14.81 4.08333 15.3075 3.6339 15.78 3.2061C18.02 5.35954 20.2475 7.50337 22.495 9.66402C22.0275 10.0846 21.525 10.5389 21.04 10.9763L14.325 4.52075Z" fill="#815F51"/>
</svg>
