<svg width="20" height="27" viewBox="0 0 20 27" fill="none" xmlns="http://www.w3.org/2000/svg">
<path d="M2.34627 25.3048C2.37694 26.0006 2.97194 26.549 3.69575 26.549H16.3042C17.0281 26.549 17.6261 26.0006 17.6537 25.3048L18.5554 7.02993H1.44456L2.34627 25.3048ZM12.8508 11.5706C12.8508 11.2787 13.0962 11.0428 13.3998 11.0428H14.277C14.5806 11.0428 14.8259 11.2817 14.8259 11.5706V22.0113C14.8259 22.3032 14.5775 22.5391 14.277 22.5391H13.3998C13.0962 22.5391 12.8508 22.3032 12.8508 22.0113V11.5706ZM9.01396 11.5706C9.01396 11.2787 9.25932 11.0428 9.56295 11.0428H10.4401C10.7438 11.0428 10.9891 11.2817 10.9891 11.5706V22.0113C10.9891 22.3032 10.7438 22.5391 10.4401 22.5391H9.56295C9.25932 22.5391 9.01396 22.3032 9.01396 22.0113V11.5706ZM5.17405 11.5706C5.17405 11.2787 5.41941 11.0428 5.71998 11.0428H6.59715C6.90078 11.0428 7.14614 11.2817 7.14614 11.5706V22.0113C7.14614 22.3032 6.89772 22.5391 6.59715 22.5391H5.71998C5.41635 22.5391 5.17405 22.3032 5.17405 22.0113V11.5706ZM19.1535 2.07939H13.3384V1.02087C13.3384 0.8705 13.2127 0.749611 13.0563 0.749611H6.94679C6.79037 0.749611 6.66462 0.8705 6.66462 1.02087V2.07939H0.846496C0.380309 2.07939 0 2.44205 0 2.89317V5.45248H20V2.89317C20 2.445 19.6228 2.07939 19.1535 2.07939Z" fill="#815F51"/>
</svg>
